<mxfile host="app.diagrams.net" modified="2024-03-22T19:00:43.287Z" agent="Mozilla/5.0 (Windows NT 10.0; Win64; x64) AppleWebKit/537.36 (KHTML, like Gecko) Chrome/122.0.0.0 Safari/537.36 Edg/122.0.0.0" etag="PFFJsO7LKfd6-oRSkq-Y" version="24.0.8" type="device">
  <diagram id="R2lEEEUBdFMjLlhIrx00" name="Page-1">
    <mxGraphModel dx="1386" dy="843" grid="1" gridSize="10" guides="1" tooltips="1" connect="1" arrows="1" fold="1" page="1" pageScale="1" pageWidth="850" pageHeight="1100" math="0" shadow="0" extFonts="Permanent Marker^https://fonts.googleapis.com/css?family=Permanent+Marker">
      <root>
        <mxCell id="0" />
        <mxCell id="1" parent="0" />
        <mxCell id="mXYWg99Zpy1EYqxwixBm-13" style="edgeStyle=none;curved=1;rounded=0;orthogonalLoop=1;jettySize=auto;html=1;entryX=0;entryY=0.5;entryDx=0;entryDy=0;fontSize=12;startSize=8;endSize=8;" edge="1" parent="1" source="mXYWg99Zpy1EYqxwixBm-1" target="mXYWg99Zpy1EYqxwixBm-4">
          <mxGeometry relative="1" as="geometry" />
        </mxCell>
        <mxCell id="mXYWg99Zpy1EYqxwixBm-14" style="edgeStyle=none;curved=1;rounded=0;orthogonalLoop=1;jettySize=auto;html=1;entryX=0;entryY=0.5;entryDx=0;entryDy=0;fontSize=12;startSize=8;endSize=8;" edge="1" parent="1" source="mXYWg99Zpy1EYqxwixBm-1" target="mXYWg99Zpy1EYqxwixBm-8">
          <mxGeometry relative="1" as="geometry" />
        </mxCell>
        <mxCell id="mXYWg99Zpy1EYqxwixBm-15" style="edgeStyle=none;curved=1;rounded=0;orthogonalLoop=1;jettySize=auto;html=1;entryX=0;entryY=0.5;entryDx=0;entryDy=0;fontSize=12;startSize=8;endSize=8;" edge="1" parent="1" source="mXYWg99Zpy1EYqxwixBm-1" target="mXYWg99Zpy1EYqxwixBm-12">
          <mxGeometry relative="1" as="geometry" />
        </mxCell>
        <mxCell id="mXYWg99Zpy1EYqxwixBm-1" value="&lt;font style=&quot;font-size: 23px;&quot;&gt;&lt;b&gt;&lt;i&gt;Neutro&lt;/i&gt;&lt;/b&gt;&lt;/font&gt;" style="rounded=1;whiteSpace=wrap;html=1;" vertex="1" parent="1">
          <mxGeometry x="130" y="190" width="120" height="60" as="geometry" />
        </mxCell>
        <mxCell id="mXYWg99Zpy1EYqxwixBm-2" value="&lt;h2&gt;&lt;b&gt;&lt;font face=&quot;Verdana&quot; style=&quot;font-size: 17px;&quot;&gt;Etiquetado de este Proyecto&lt;/font&gt;&lt;/b&gt;&lt;/h2&gt;" style="text;html=1;align=center;verticalAlign=middle;whiteSpace=wrap;rounded=0;fontSize=16;" vertex="1" parent="1">
          <mxGeometry x="40" y="40" width="310" height="30" as="geometry" />
        </mxCell>
        <mxCell id="mXYWg99Zpy1EYqxwixBm-3" value="&lt;h2&gt;&lt;b&gt;&lt;font face=&quot;Verdana&quot; style=&quot;font-size: 17px;&quot;&gt;Preetiquetado de origen&amp;nbsp; &amp;nbsp; &amp;nbsp; &amp;nbsp; &amp;nbsp;&amp;nbsp;&lt;/font&gt;&lt;/b&gt;&lt;b style=&quot;background-color: initial; font-size: 16px;&quot;&gt;&lt;font face=&quot;Verdana&quot; style=&quot;font-size: 17px;&quot;&gt;&amp;nbsp;(fuera de este proyecto)&lt;/font&gt;&lt;/b&gt;&lt;/h2&gt;" style="text;html=1;align=center;verticalAlign=middle;whiteSpace=wrap;rounded=0;fontSize=16;" vertex="1" parent="1">
          <mxGeometry x="460" y="40" width="355" height="30" as="geometry" />
        </mxCell>
        <mxCell id="mXYWg99Zpy1EYqxwixBm-4" value="&lt;font style=&quot;font-size: 23px;&quot;&gt;&lt;b&gt;&lt;i&gt;nocode&lt;/i&gt;&lt;/b&gt;&lt;/font&gt;" style="rounded=1;whiteSpace=wrap;html=1;" vertex="1" parent="1">
          <mxGeometry x="550" y="110" width="120" height="60" as="geometry" />
        </mxCell>
        <mxCell id="mXYWg99Zpy1EYqxwixBm-5" value="&lt;font style=&quot;font-size: 23px;&quot;&gt;&lt;b&gt;&lt;i&gt;disgust&lt;/i&gt;&lt;/b&gt;&lt;/font&gt;" style="rounded=1;whiteSpace=wrap;html=1;" vertex="1" parent="1">
          <mxGeometry x="540" y="670" width="120" height="60" as="geometry" />
        </mxCell>
        <mxCell id="mXYWg99Zpy1EYqxwixBm-17" style="edgeStyle=none;curved=1;rounded=0;orthogonalLoop=1;jettySize=auto;html=1;entryX=0;entryY=0.75;entryDx=0;entryDy=0;fontSize=12;startSize=8;endSize=8;" edge="1" parent="1" source="mXYWg99Zpy1EYqxwixBm-6" target="mXYWg99Zpy1EYqxwixBm-11">
          <mxGeometry relative="1" as="geometry" />
        </mxCell>
        <mxCell id="mXYWg99Zpy1EYqxwixBm-18" style="edgeStyle=none;curved=1;rounded=0;orthogonalLoop=1;jettySize=auto;html=1;fontSize=12;startSize=8;endSize=8;" edge="1" parent="1" source="mXYWg99Zpy1EYqxwixBm-6">
          <mxGeometry relative="1" as="geometry">
            <mxPoint x="530" y="610" as="targetPoint" />
          </mxGeometry>
        </mxCell>
        <mxCell id="mXYWg99Zpy1EYqxwixBm-19" style="edgeStyle=none;curved=1;rounded=0;orthogonalLoop=1;jettySize=auto;html=1;fontSize=12;startSize=8;endSize=8;" edge="1" parent="1" source="mXYWg99Zpy1EYqxwixBm-6">
          <mxGeometry relative="1" as="geometry">
            <mxPoint x="530" y="700" as="targetPoint" />
          </mxGeometry>
        </mxCell>
        <mxCell id="mXYWg99Zpy1EYqxwixBm-6" value="&lt;font style=&quot;font-size: 23px;&quot;&gt;&lt;b&gt;&lt;i&gt;Negativo&lt;/i&gt;&lt;/b&gt;&lt;/font&gt;" style="rounded=1;whiteSpace=wrap;html=1;" vertex="1" parent="1">
          <mxGeometry x="140" y="580" width="120" height="60" as="geometry" />
        </mxCell>
        <mxCell id="mXYWg99Zpy1EYqxwixBm-7" value="&lt;font style=&quot;font-size: 23px;&quot;&gt;&lt;b&gt;&lt;i&gt;happy&lt;/i&gt;&lt;/b&gt;&lt;/font&gt;" style="rounded=1;whiteSpace=wrap;html=1;" vertex="1" parent="1">
          <mxGeometry x="550" y="390" width="120" height="60" as="geometry" />
        </mxCell>
        <mxCell id="mXYWg99Zpy1EYqxwixBm-8" value="&lt;font style=&quot;font-size: 23px;&quot;&gt;&lt;b&gt;&lt;i&gt;not-relevant&lt;/i&gt;&lt;/b&gt;&lt;/font&gt;" style="rounded=1;whiteSpace=wrap;html=1;" vertex="1" parent="1">
          <mxGeometry x="550" y="190" width="140" height="60" as="geometry" />
        </mxCell>
        <mxCell id="mXYWg99Zpy1EYqxwixBm-9" value="&lt;font style=&quot;font-size: 23px;&quot;&gt;&lt;b&gt;&lt;i&gt;angry&lt;/i&gt;&lt;/b&gt;&lt;/font&gt;" style="rounded=1;whiteSpace=wrap;html=1;" vertex="1" parent="1">
          <mxGeometry x="540" y="580" width="120" height="60" as="geometry" />
        </mxCell>
        <mxCell id="mXYWg99Zpy1EYqxwixBm-16" style="edgeStyle=none;curved=1;rounded=0;orthogonalLoop=1;jettySize=auto;html=1;entryX=0;entryY=0.5;entryDx=0;entryDy=0;fontSize=12;startSize=8;endSize=8;" edge="1" parent="1" source="mXYWg99Zpy1EYqxwixBm-10" target="mXYWg99Zpy1EYqxwixBm-7">
          <mxGeometry relative="1" as="geometry" />
        </mxCell>
        <mxCell id="mXYWg99Zpy1EYqxwixBm-10" value="&lt;font style=&quot;font-size: 23px;&quot;&gt;&lt;b&gt;&lt;i&gt;Positivo&lt;/i&gt;&lt;/b&gt;&lt;/font&gt;" style="rounded=1;whiteSpace=wrap;html=1;" vertex="1" parent="1">
          <mxGeometry x="140" y="390" width="120" height="60" as="geometry" />
        </mxCell>
        <mxCell id="mXYWg99Zpy1EYqxwixBm-11" value="&lt;font style=&quot;font-size: 23px;&quot;&gt;&lt;b&gt;&lt;i&gt;sad&lt;/i&gt;&lt;/b&gt;&lt;/font&gt;" style="rounded=1;whiteSpace=wrap;html=1;" vertex="1" parent="1">
          <mxGeometry x="540" y="490" width="120" height="60" as="geometry" />
        </mxCell>
        <mxCell id="mXYWg99Zpy1EYqxwixBm-12" value="&lt;font style=&quot;font-size: 23px;&quot;&gt;&lt;b&gt;&lt;i&gt;surprise&lt;/i&gt;&lt;/b&gt;&lt;/font&gt;" style="rounded=1;whiteSpace=wrap;html=1;" vertex="1" parent="1">
          <mxGeometry x="550" y="280" width="120" height="60" as="geometry" />
        </mxCell>
      </root>
    </mxGraphModel>
  </diagram>
</mxfile>
